<svg xmlns="http://www.w3.org/2000/svg" version="1.1" width="19" height="19" viewBox="0 0 19 19" fill="none" id="svg2" sodipodi:docname="favicon.svg" inkscape:version="1.4.3 (0d15f75, 2025-12-25)" xmlns:inkscape="http://www.inkscape.org/namespaces/inkscape" xmlns:sodipodi="http://sodipodi.sourceforge.net/DTD/sodipodi-0.dtd" xmlns:svg="http://www.w3.org/2000/svg"><defs id="defs2"></defs><sodipodi:namedview id="namedview2" pagecolor="#ffffff" bordercolor="#666666" borderopacity="1.0" inkscape:showpageshadow="2" inkscape:pageopacity="0.0" inkscape:pagecheckerboard="0" inkscape:deskcolor="#d1d1d1" inkscape:zoom="3.6733872" inkscape:cx="7.8946211" inkscape:cy="18.919868" inkscape:window-width="1920" inkscape:window-height="1147" inkscape:window-x="-8" inkscape:window-y="-8" inkscape:window-maximized="1" inkscape:current-layer="svg2" showgrid="false"></sodipodi:namedview><rect width="19" height="19" rx="3.0645199" fill="#497555" id="rect1" x="0" y="0"></rect><path d="m 9.632,5.336 c 0.528,0 0.956,0.08 1.284,0.24 0.328,0.152 0.628,0.332 0.9,0.54 0.104,0.08 0.184,0.12 0.24,0.12 0.152,0 0.252,-0.244 0.3,-0.732 h 0.276 C 12.616,5.808 12.604,6.176 12.596,6.608 12.588,7.032 12.584,7.6 12.584,8.312 H 12.308 C 12.252,7.928 12.176,7.572 12.08,7.244 11.992,6.916 11.836,6.636 11.612,6.404 11.396,6.148 11.112,5.948 10.76,5.804 10.416,5.66 10.064,5.588 9.704,5.588 9.288,5.588 8.92,5.692 8.6,5.9 8.28,6.1 8.008,6.388 7.784,6.764 7.568,7.14 7.4,7.584 7.28,8.096 7.168,8.6 7.112,9.156 7.112,9.764 c 0,1.44 0.22,2.496 0.66,3.168 0.448,0.664 1.12,0.996 2.016,0.996 0.256,0 0.476,-0.036 0.66,-0.108 0.192,-0.072 0.344,-0.144 0.456,-0.216 0.136,-0.096 0.224,-0.188 0.264,-0.276 0.04,-0.096 0.06,-0.22 0.06,-0.372 v -1.164 c 0,-0.344 -0.032,-0.596 -0.096,-0.756 -0.056,-0.168 -0.172,-0.28 -0.348,-0.336 -0.176,-0.064 -0.432,-0.1 -0.768,-0.108 v -0.24 c 0.152,0.008 0.332,0.016 0.54,0.024 0.208,0 0.424,0.004 0.648,0.012 0.232,0 0.44,0 0.624,0 0.288,0 0.548,-0.004 0.78,-0.012 0.24,-0.008 0.436,-0.016 0.588,-0.024 v 0.24 c -0.168,0.008 -0.296,0.036 -0.384,0.084 -0.08,0.048 -0.136,0.144 -0.168,0.288 -0.024,0.144 -0.036,0.364 -0.036,0.66 V 14 h -0.24 c -0.008,-0.136 -0.04,-0.284 -0.096,-0.444 -0.048,-0.16 -0.124,-0.24 -0.228,-0.24 -0.056,0 -0.116,0.012 -0.18,0.036 -0.056,0.024 -0.156,0.084 -0.3,0.18 C 11.284,13.724 10.992,13.88 10.688,14 10.384,14.112 10.04,14.168 9.656,14.168 8.8,14.168 8.068,14 7.46,13.664 6.852,13.32 6.388,12.828 6.068,12.188 5.756,11.54 5.6,10.772 5.6,9.884 5.6,8.956 5.772,8.152 6.116,7.472 6.468,6.792 6.944,6.268 7.544,5.9 8.152,5.524 8.848,5.336 9.632,5.336 Z" fill="#ffffff" fill-opacity="0.9" id="path2"></path></svg>