<svg width="124" height="19" viewBox="0 0 124 19" fill="none" xmlns="http://www.w3.org/2000/svg">
<path d="M30.404 4.892C31.02 4.892 31.5193 4.98533 31.902 5.172C32.2847 5.34933 32.6347 5.55933 32.952 5.802C33.0733 5.89533 33.1667 5.942 33.232 5.942C33.4093 5.942 33.526 5.65733 33.582 5.088H33.904C33.8853 5.44267 33.8713 5.872 33.862 6.376C33.8527 6.87067 33.848 7.53333 33.848 8.364H33.526C33.4607 7.916 33.372 7.50067 33.26 7.118C33.1573 6.73533 32.9753 6.40867 32.714 6.138C32.462 5.83933 32.1307 5.606 31.72 5.438C31.3187 5.27 30.908 5.186 30.488 5.186C30.0027 5.186 29.5733 5.30733 29.2 5.55C28.8267 5.78333 28.5093 6.11933 28.248 6.558C27.996 6.99667 27.8 7.51467 27.66 8.112C27.5293 8.7 27.464 9.34867 27.464 10.058C27.464 11.738 27.7207 12.97 28.234 13.754C28.7567 14.5287 29.5407 14.916 30.586 14.916C30.8847 14.916 31.1413 14.874 31.356 14.79C31.58 14.706 31.7573 14.622 31.888 14.538C32.0467 14.426 32.1493 14.3187 32.196 14.216C32.2427 14.104 32.266 13.9593 32.266 13.782V12.424C32.266 12.0227 32.2287 11.7287 32.154 11.542C32.0887 11.346 31.9533 11.2153 31.748 11.15C31.5427 11.0753 31.244 11.0333 30.852 11.024V10.744C31.0293 10.7533 31.2393 10.7627 31.482 10.772C31.7247 10.772 31.9767 10.7767 32.238 10.786C32.5087 10.786 32.7513 10.786 32.966 10.786C33.302 10.786 33.6053 10.7813 33.876 10.772C34.156 10.7627 34.3847 10.7533 34.562 10.744V11.024C34.366 11.0333 34.2167 11.066 34.114 11.122C34.0207 11.178 33.9553 11.29 33.918 11.458C33.89 11.626 33.876 11.8827 33.876 12.228V15H33.596C33.5867 14.8413 33.5493 14.6687 33.484 14.482C33.428 14.2953 33.3393 14.202 33.218 14.202C33.1527 14.202 33.0827 14.216 33.008 14.244C32.9427 14.272 32.826 14.342 32.658 14.454C32.3313 14.678 31.9907 14.86 31.636 15C31.2813 15.1307 30.88 15.196 30.432 15.196C29.4333 15.196 28.5793 15 27.87 14.608C27.1607 14.2067 26.6193 13.6327 26.246 12.886C25.882 12.13 25.7 11.234 25.7 10.198C25.7 9.11533 25.9007 8.17733 26.302 7.384C26.7127 6.59067 27.268 5.97933 27.968 5.55C28.6773 5.11133 29.4893 4.892 30.404 4.892ZM39.8801 7.58C40.1508 7.58 40.3795 7.636 40.5661 7.748C40.7621 7.86 40.9068 8.00467 41.0001 8.182C41.1028 8.35 41.1541 8.54133 41.1541 8.756C41.1541 9.02667 41.0701 9.26 40.9021 9.456C40.7435 9.64267 40.5288 9.736 40.2581 9.736C40.0248 9.736 39.8241 9.666 39.6561 9.526C39.4975 9.386 39.4181 9.19467 39.4181 8.952C39.4181 8.74667 39.4695 8.574 39.5721 8.434C39.6841 8.28467 39.8101 8.168 39.9501 8.084C39.8568 8.00933 39.7448 7.97667 39.6141 7.986C39.3621 7.99533 39.1288 8.07933 38.9141 8.238C38.6995 8.38733 38.5175 8.58333 38.3681 8.826C38.2188 9.05933 38.1021 9.31133 38.0181 9.582C37.9341 9.85267 37.8921 10.1047 37.8921 10.338V13.558C37.8921 14.0153 38.0181 14.3233 38.2701 14.482C38.5221 14.6313 38.8721 14.706 39.3201 14.706V15C39.1055 14.9907 38.7975 14.9813 38.3961 14.972C38.0041 14.9533 37.5888 14.944 37.1501 14.944C36.8141 14.944 36.4781 14.9533 36.1421 14.972C35.8061 14.9813 35.5495 14.9907 35.3721 15V14.706C35.7361 14.706 35.9928 14.636 36.1421 14.496C36.3008 14.356 36.3801 14.09 36.3801 13.698V9.302C36.3801 8.882 36.3101 8.574 36.1701 8.378C36.0301 8.17267 35.7641 8.07 35.3721 8.07V7.776C35.6708 7.804 35.9601 7.818 36.2401 7.818C36.5575 7.818 36.8515 7.804 37.1221 7.776C37.4021 7.73867 37.6588 7.68733 37.8921 7.622V9.232C38.0041 8.96133 38.1535 8.7 38.3401 8.448C38.5268 8.196 38.7508 7.99067 39.0121 7.832C39.2735 7.664 39.5628 7.58 39.8801 7.58ZM44.9281 7.58C45.7495 7.58 46.3935 7.82733 46.8601 8.322C47.3268 8.81667 47.5601 9.60067 47.5601 10.674H42.7301L42.7021 10.408H46.0761C46.0855 9.95067 46.0481 9.53067 45.9641 9.148C45.8801 8.756 45.7495 8.44333 45.5721 8.21C45.3948 7.97667 45.1615 7.86 44.8721 7.86C44.4708 7.86 44.1208 8.07467 43.8221 8.504C43.5328 8.924 43.3555 9.60067 43.2901 10.534L43.3321 10.604C43.3228 10.7347 43.3135 10.8793 43.3041 11.038C43.2948 11.1873 43.2901 11.3367 43.2901 11.486C43.2901 12.13 43.3881 12.6713 43.5841 13.11C43.7801 13.5487 44.0368 13.88 44.3541 14.104C44.6715 14.3187 44.9935 14.426 45.3201 14.426C45.5721 14.426 45.8148 14.3887 46.0481 14.314C46.2908 14.23 46.5195 14.0947 46.7341 13.908C46.9488 13.712 47.1401 13.446 47.3081 13.11L47.5881 13.222C47.4761 13.5393 47.3035 13.852 47.0701 14.16C46.8368 14.468 46.5381 14.72 46.1741 14.916C45.8101 15.1027 45.3855 15.196 44.9001 15.196C44.2468 15.196 43.6775 15.0513 43.1921 14.762C42.7068 14.4633 42.3335 14.0387 42.0721 13.488C41.8108 12.9373 41.6801 12.284 41.6801 11.528C41.6801 10.6973 41.8155 9.988 42.0861 9.4C42.3568 8.812 42.7348 8.364 43.2201 8.056C43.7148 7.73867 44.2841 7.58 44.9281 7.58ZM51.9965 7.58C52.8178 7.58 53.4618 7.82733 53.9285 8.322C54.3952 8.81667 54.6285 9.60067 54.6285 10.674H49.7985L49.7705 10.408H53.1445C53.1538 9.95067 53.1165 9.53067 53.0325 9.148C52.9485 8.756 52.8178 8.44333 52.6405 8.21C52.4632 7.97667 52.2298 7.86 51.9405 7.86C51.5392 7.86 51.1892 8.07467 50.8905 8.504C50.6012 8.924 50.4238 9.60067 50.3585 10.534L50.4005 10.604C50.3912 10.7347 50.3818 10.8793 50.3725 11.038C50.3632 11.1873 50.3585 11.3367 50.3585 11.486C50.3585 12.13 50.4565 12.6713 50.6525 13.11C50.8485 13.5487 51.1052 13.88 51.4225 14.104C51.7398 14.3187 52.0618 14.426 52.3885 14.426C52.6405 14.426 52.8832 14.3887 53.1165 14.314C53.3592 14.23 53.5878 14.0947 53.8025 13.908C54.0172 13.712 54.2085 13.446 54.3765 13.11L54.6565 13.222C54.5445 13.5393 54.3718 13.852 54.1385 14.16C53.9052 14.468 53.6065 14.72 53.2425 14.916C52.8785 15.1027 52.4538 15.196 51.9685 15.196C51.3152 15.196 50.7458 15.0513 50.2605 14.762C49.7752 14.4633 49.4018 14.0387 49.1405 13.488C48.8792 12.9373 48.7485 12.284 48.7485 11.528C48.7485 10.6973 48.8838 9.988 49.1545 9.4C49.4252 8.812 49.8032 8.364 50.2885 8.056C50.7832 7.73867 51.3525 7.58 51.9965 7.58ZM60.4375 7.58C60.8108 7.58 61.1142 7.63133 61.3475 7.734C61.5902 7.82733 61.7908 7.958 61.9495 8.126C62.1175 8.30333 62.2342 8.532 62.2995 8.812C62.3742 9.092 62.4115 9.47 62.4115 9.946V13.698C62.4115 14.09 62.4862 14.356 62.6355 14.496C62.7942 14.636 63.0555 14.706 63.4195 14.706V15C63.2608 14.9907 63.0135 14.9813 62.6775 14.972C62.3415 14.9533 62.0102 14.944 61.6835 14.944C61.3662 14.944 61.0488 14.9533 60.7315 14.972C60.4235 14.9813 60.1902 14.9907 60.0315 15V14.706C60.3488 14.706 60.5728 14.636 60.7035 14.496C60.8342 14.356 60.8995 14.09 60.8995 13.698V9.554C60.8995 9.28333 60.8762 9.04067 60.8295 8.826C60.7828 8.602 60.6848 8.42467 60.5355 8.294C60.3862 8.154 60.1622 8.084 59.8635 8.084C59.5182 8.084 59.2102 8.182 58.9395 8.378C58.6782 8.574 58.4682 8.84467 58.3095 9.19C58.1602 9.526 58.0855 9.904 58.0855 10.324V13.698C58.0855 14.09 58.1508 14.356 58.2815 14.496C58.4215 14.636 58.6455 14.706 58.9535 14.706V15C58.8042 14.9907 58.5755 14.9813 58.2675 14.972C57.9688 14.9533 57.6562 14.944 57.3295 14.944C57.0122 14.944 56.6808 14.9533 56.3355 14.972C55.9902 14.9813 55.7335 14.9907 55.5655 15V14.706C55.9295 14.706 56.1862 14.636 56.3355 14.496C56.4942 14.356 56.5735 14.09 56.5735 13.698V9.302C56.5735 8.882 56.5035 8.574 56.3635 8.378C56.2235 8.17267 55.9575 8.07 55.5655 8.07V7.776C55.8642 7.804 56.1535 7.818 56.4335 7.818C56.7508 7.818 57.0448 7.804 57.3155 7.776C57.5955 7.73867 57.8522 7.68733 58.0855 7.622V9.148C58.3282 8.56933 58.6595 8.16333 59.0795 7.93C59.5088 7.69667 59.9615 7.58 60.4375 7.58ZM72.445 4.892C73.061 4.892 73.5603 4.98533 73.943 5.172C74.3257 5.34933 74.6757 5.55933 74.993 5.802C75.1143 5.89533 75.2077 5.942 75.273 5.942C75.4503 5.942 75.567 5.65733 75.623 5.088H75.945C75.9263 5.44267 75.9123 5.872 75.903 6.376C75.8937 6.87067 75.889 7.53333 75.889 8.364H75.567C75.5017 7.916 75.413 7.50067 75.301 7.118C75.1983 6.73533 75.0163 6.40867 74.755 6.138C74.503 5.83933 74.1717 5.606 73.761 5.438C73.3597 5.27 72.949 5.186 72.529 5.186C72.0437 5.186 71.6143 5.30733 71.241 5.55C70.8677 5.78333 70.5503 6.11933 70.289 6.558C70.037 6.99667 69.841 7.51467 69.701 8.112C69.5703 8.7 69.505 9.34867 69.505 10.058C69.505 11.738 69.7617 12.97 70.275 13.754C70.7977 14.5287 71.5817 14.916 72.627 14.916C72.9257 14.916 73.1823 14.874 73.397 14.79C73.621 14.706 73.7983 14.622 73.929 14.538C74.0877 14.426 74.1903 14.3187 74.237 14.216C74.2837 14.104 74.307 13.9593 74.307 13.782V12.424C74.307 12.0227 74.2697 11.7287 74.195 11.542C74.1297 11.346 73.9943 11.2153 73.789 11.15C73.5837 11.0753 73.285 11.0333 72.893 11.024V10.744C73.0703 10.7533 73.2803 10.7627 73.523 10.772C73.7657 10.772 74.0177 10.7767 74.279 10.786C74.5497 10.786 74.7923 10.786 75.007 10.786C75.343 10.786 75.6463 10.7813 75.917 10.772C76.197 10.7627 76.4257 10.7533 76.603 10.744V11.024C76.407 11.0333 76.2577 11.066 76.155 11.122C76.0617 11.178 75.9963 11.29 75.959 11.458C75.931 11.626 75.917 11.8827 75.917 12.228V15H75.637C75.6277 14.8413 75.5903 14.6687 75.525 14.482C75.469 14.2953 75.3803 14.202 75.259 14.202C75.1937 14.202 75.1237 14.216 75.049 14.244C74.9837 14.272 74.867 14.342 74.699 14.454C74.3723 14.678 74.0317 14.86 73.677 15C73.3223 15.1307 72.921 15.196 72.473 15.196C71.4743 15.196 70.6203 15 69.911 14.608C69.2017 14.2067 68.6603 13.6327 68.287 12.886C67.923 12.13 67.741 11.234 67.741 10.198C67.741 9.11533 67.9417 8.17733 68.343 7.384C68.7537 6.59067 69.309 5.97933 70.009 5.55C70.7183 5.11133 71.5303 4.892 72.445 4.892ZM80.9132 7.58C81.5385 7.58 82.0938 7.71067 82.5792 7.972C83.0645 8.23333 83.4518 8.644 83.7412 9.204C84.0305 9.764 84.1752 10.4967 84.1752 11.402C84.1752 12.3073 84.0305 13.04 83.7412 13.6C83.4518 14.1507 83.0645 14.5567 82.5792 14.818C82.0938 15.07 81.5385 15.196 80.9132 15.196C80.2972 15.196 79.7418 15.07 79.2472 14.818C78.7525 14.5567 78.3605 14.1507 78.0712 13.6C77.7912 13.04 77.6512 12.3073 77.6512 11.402C77.6512 10.4967 77.7912 9.764 78.0712 9.204C78.3605 8.644 78.7525 8.23333 79.2472 7.972C79.7418 7.71067 80.2972 7.58 80.9132 7.58ZM80.9132 7.86C80.4278 7.86 80.0312 8.14 79.7232 8.7C79.4152 9.25067 79.2612 10.1513 79.2612 11.402C79.2612 12.6527 79.4152 13.5533 79.7232 14.104C80.0312 14.6453 80.4278 14.916 80.9132 14.916C81.3892 14.916 81.7812 14.6453 82.0892 14.104C82.4065 13.5533 82.5652 12.6527 82.5652 11.402C82.5652 10.1513 82.4065 9.25067 82.0892 8.7C81.7812 8.14 81.3892 7.86 80.9132 7.86ZM88.6651 7.58C89.2904 7.58 89.8458 7.71067 90.3311 7.972C90.8164 8.23333 91.2038 8.644 91.4931 9.204C91.7824 9.764 91.9271 10.4967 91.9271 11.402C91.9271 12.3073 91.7824 13.04 91.4931 13.6C91.2038 14.1507 90.8164 14.5567 90.3311 14.818C89.8458 15.07 89.2904 15.196 88.6651 15.196C88.0491 15.196 87.4938 15.07 86.9991 14.818C86.5044 14.5567 86.1124 14.1507 85.8231 13.6C85.5431 13.04 85.4031 12.3073 85.4031 11.402C85.4031 10.4967 85.5431 9.764 85.8231 9.204C86.1124 8.644 86.5044 8.23333 86.9991 7.972C87.4938 7.71067 88.0491 7.58 88.6651 7.58ZM88.6651 7.86C88.1798 7.86 87.7831 8.14 87.4751 8.7C87.1671 9.25067 87.0131 10.1513 87.0131 11.402C87.0131 12.6527 87.1671 13.5533 87.4751 14.104C87.7831 14.6453 88.1798 14.916 88.6651 14.916C89.1411 14.916 89.5331 14.6453 89.8411 14.104C90.1584 13.5533 90.3171 12.6527 90.3171 11.402C90.3171 10.1513 90.1584 9.25067 89.8411 8.7C89.5331 8.14 89.1411 7.86 88.6651 7.86ZM99.4691 4.024V13.474C99.4691 13.894 99.5391 14.2067 99.6791 14.412C99.8284 14.608 100.094 14.706 100.477 14.706V15C100.188 14.972 99.8984 14.958 99.6091 14.958C99.2917 14.958 98.9931 14.972 98.7131 15C98.4424 15.028 98.1904 15.0793 97.9571 15.154V5.704C97.9571 5.284 97.8824 4.976 97.7331 4.78C97.5931 4.57467 97.3317 4.472 96.9491 4.472V4.178C97.2477 4.206 97.5371 4.22 97.8171 4.22C98.1251 4.22 98.4191 4.206 98.6991 4.178C98.9791 4.14067 99.2357 4.08933 99.4691 4.024ZM96.3191 7.58C96.7297 7.58 97.1031 7.66867 97.4391 7.846C97.7844 8.02333 98.0271 8.322 98.1671 8.742L97.9991 8.896C97.8684 8.56 97.6771 8.31733 97.4251 8.168C97.1731 8.00933 96.8884 7.93 96.5711 7.93C96.0391 7.93 95.6051 8.21467 95.2691 8.784C94.9331 9.344 94.7697 10.212 94.7791 11.388C94.7791 12.1627 94.8444 12.7973 94.9751 13.292C95.1057 13.7773 95.2971 14.1367 95.5491 14.37C95.8104 14.6033 96.1231 14.72 96.4871 14.72C96.8511 14.72 97.1777 14.566 97.4671 14.258C97.7657 13.95 97.9431 13.5067 97.9991 12.928L98.1251 13.222C98.0317 13.8567 97.8077 14.3467 97.4531 14.692C97.0984 15.028 96.6224 15.196 96.0251 15.196C95.4557 15.196 94.9517 15.0607 94.5131 14.79C94.0837 14.51 93.7524 14.09 93.5191 13.53C93.2857 12.9607 93.1691 12.2467 93.1691 11.388C93.1691 10.5387 93.3091 9.834 93.5891 9.274C93.8784 8.70467 94.2611 8.28 94.7371 8C95.2131 7.72 95.7404 7.58 96.3191 7.58ZM102.814 4.248C103.103 4.248 103.346 4.34133 103.542 4.528C103.738 4.70533 103.836 4.92933 103.836 5.2C103.836 5.47067 103.738 5.69933 103.542 5.886C103.346 6.06333 103.103 6.152 102.814 6.152C102.525 6.152 102.282 6.06333 102.086 5.886C101.89 5.69933 101.792 5.47067 101.792 5.2C101.792 4.92933 101.89 4.70533 102.086 4.528C102.282 4.34133 102.525 4.248 102.814 4.248ZM103.654 7.622V13.698C103.654 14.09 103.729 14.356 103.878 14.496C104.037 14.636 104.298 14.706 104.662 14.706V15C104.503 14.9907 104.256 14.9813 103.92 14.972C103.593 14.9533 103.257 14.944 102.912 14.944C102.585 14.944 102.249 14.9533 101.904 14.972C101.559 14.9813 101.302 14.9907 101.134 15V14.706C101.498 14.706 101.755 14.636 101.904 14.496C102.063 14.356 102.142 14.09 102.142 13.698V9.302C102.142 8.882 102.072 8.574 101.932 8.378C101.792 8.17267 101.526 8.07 101.134 8.07V7.776C101.433 7.804 101.722 7.818 102.002 7.818C102.319 7.818 102.613 7.804 102.884 7.776C103.164 7.73867 103.421 7.68733 103.654 7.622ZM108.803 7.58C109.624 7.58 110.268 7.82733 110.735 8.322C111.202 8.81667 111.435 9.60067 111.435 10.674H106.605L106.577 10.408H109.951C109.96 9.95067 109.923 9.53067 109.839 9.148C109.755 8.756 109.624 8.44333 109.447 8.21C109.27 7.97667 109.036 7.86 108.747 7.86C108.346 7.86 107.996 8.07467 107.697 8.504C107.408 8.924 107.23 9.60067 107.165 10.534L107.207 10.604C107.198 10.7347 107.188 10.8793 107.179 11.038C107.17 11.1873 107.165 11.3367 107.165 11.486C107.165 12.13 107.263 12.6713 107.459 13.11C107.655 13.5487 107.912 13.88 108.229 14.104C108.546 14.3187 108.868 14.426 109.195 14.426C109.447 14.426 109.69 14.3887 109.923 14.314C110.166 14.23 110.394 14.0947 110.609 13.908C110.824 13.712 111.015 13.446 111.183 13.11L111.463 13.222C111.351 13.5393 111.178 13.852 110.945 14.16C110.712 14.468 110.413 14.72 110.049 14.916C109.685 15.1027 109.26 15.196 108.775 15.196C108.122 15.196 107.552 15.0513 107.067 14.762C106.582 14.4633 106.208 14.0387 105.947 13.488C105.686 12.9373 105.555 12.284 105.555 11.528C105.555 10.6973 105.69 9.988 105.961 9.4C106.232 8.812 106.61 8.364 107.095 8.056C107.59 7.73867 108.159 7.58 108.803 7.58ZM115.003 7.58C115.377 7.58 115.699 7.64067 115.969 7.762C116.249 7.874 116.45 7.97667 116.571 8.07C116.879 8.31267 117.071 8.154 117.145 7.594H117.453C117.435 7.85533 117.421 8.17267 117.411 8.546C117.402 8.91 117.397 9.39533 117.397 10.002H117.089C117.033 9.65667 116.935 9.32067 116.795 8.994C116.665 8.66733 116.469 8.39667 116.207 8.182C115.955 7.96733 115.624 7.86 115.213 7.86C114.905 7.86 114.649 7.94867 114.443 8.126C114.238 8.294 114.135 8.546 114.135 8.882C114.135 9.162 114.219 9.40467 114.387 9.61C114.555 9.81533 114.77 10.0067 115.031 10.184C115.302 10.3613 115.591 10.5527 115.899 10.758C116.245 10.9913 116.553 11.2247 116.823 11.458C117.103 11.682 117.323 11.934 117.481 12.214C117.649 12.494 117.733 12.8207 117.733 13.194C117.733 13.6233 117.617 13.9873 117.383 14.286C117.159 14.5847 116.861 14.8133 116.487 14.972C116.114 15.1213 115.703 15.196 115.255 15.196C115.031 15.196 114.821 15.1727 114.625 15.126C114.429 15.0887 114.247 15.0373 114.079 14.972C113.977 14.916 113.874 14.86 113.771 14.804C113.678 14.7387 113.585 14.678 113.491 14.622C113.398 14.5567 113.314 14.566 113.239 14.65C113.165 14.734 113.109 14.8833 113.071 15.098H112.763C112.782 14.7993 112.796 14.4353 112.805 14.006C112.815 13.5767 112.819 13.0073 112.819 12.298H113.127C113.193 12.8113 113.291 13.264 113.421 13.656C113.552 14.048 113.743 14.356 113.995 14.58C114.257 14.7947 114.611 14.902 115.059 14.902C115.237 14.902 115.414 14.8647 115.591 14.79C115.769 14.706 115.913 14.5753 116.025 14.398C116.147 14.2207 116.207 13.9827 116.207 13.684C116.207 13.2733 116.063 12.9373 115.773 12.676C115.493 12.4053 115.129 12.1207 114.681 11.822C114.364 11.598 114.061 11.3787 113.771 11.164C113.491 10.94 113.263 10.6927 113.085 10.422C112.908 10.142 112.819 9.81067 112.819 9.428C112.819 9.008 112.917 8.66267 113.113 8.392C113.319 8.12133 113.589 7.92067 113.925 7.79C114.261 7.65 114.621 7.58 115.003 7.58Z" fill="#497555"/>
<rect width="19" height="19" rx="3.06452" fill="#497555"/>
<path d="M9.632 5.336C10.16 5.336 10.588 5.416 10.916 5.576C11.244 5.728 11.544 5.908 11.816 6.116C11.92 6.196 12 6.236 12.056 6.236C12.208 6.236 12.308 5.992 12.356 5.504H12.632C12.616 5.808 12.604 6.176 12.596 6.608C12.588 7.032 12.584 7.6 12.584 8.312H12.308C12.252 7.928 12.176 7.572 12.08 7.244C11.992 6.916 11.836 6.636 11.612 6.404C11.396 6.148 11.112 5.948 10.76 5.804C10.416 5.66 10.064 5.588 9.704 5.588C9.288 5.588 8.92 5.692 8.6 5.9C8.28 6.1 8.008 6.388 7.784 6.764C7.568 7.14 7.4 7.584 7.28 8.096C7.168 8.6 7.112 9.156 7.112 9.764C7.112 11.204 7.332 12.26 7.772 12.932C8.22 13.596 8.892 13.928 9.788 13.928C10.044 13.928 10.264 13.892 10.448 13.82C10.64 13.748 10.792 13.676 10.904 13.604C11.04 13.508 11.128 13.416 11.168 13.328C11.208 13.232 11.228 13.108 11.228 12.956V11.792C11.228 11.448 11.196 11.196 11.132 11.036C11.076 10.868 10.96 10.756 10.784 10.7C10.608 10.636 10.352 10.6 10.016 10.592V10.352C10.168 10.36 10.348 10.368 10.556 10.376C10.764 10.376 10.98 10.38 11.204 10.388C11.436 10.388 11.644 10.388 11.828 10.388C12.116 10.388 12.376 10.384 12.608 10.376C12.848 10.368 13.044 10.36 13.196 10.352V10.592C13.028 10.6 12.9 10.628 12.812 10.676C12.732 10.724 12.676 10.82 12.644 10.964C12.62 11.108 12.608 11.328 12.608 11.624V14H12.368C12.36 13.864 12.328 13.716 12.272 13.556C12.224 13.396 12.148 13.316 12.044 13.316C11.988 13.316 11.928 13.328 11.864 13.352C11.808 13.376 11.708 13.436 11.564 13.532C11.284 13.724 10.992 13.88 10.688 14C10.384 14.112 10.04 14.168 9.656 14.168C8.8 14.168 8.068 14 7.46 13.664C6.852 13.32 6.388 12.828 6.068 12.188C5.756 11.54 5.6 10.772 5.6 9.884C5.6 8.956 5.772 8.152 6.116 7.472C6.468 6.792 6.944 6.268 7.544 5.9C8.152 5.524 8.848 5.336 9.632 5.336Z" fill="white" fill-opacity="0.9"/>
</svg>
